# This file uses centimeters as units for non-parametric coordinates.

mtllib box.mtl
g default
v -0.807568 0.007774 1.176592
v 0.807568 0.007774 1.176592
v -0.810556 1.260660 1.176592
v 0.807568 1.263762 1.176592
v -0.810556 1.260660 -1.176592
v 0.807568 1.263762 -1.176592
v -0.807568 0.007774 -1.176592
v 0.807568 0.007774 -1.176592
v 0.196549 1.330340 1.176592
v 0.196549 1.330340 -1.176592
v -0.114883 1.286710 1.176592
v -0.114883 1.286710 -1.176592
v -0.786473 1.281908 1.176592
v -0.786473 1.281908 -1.176592
v 0.196549 1.351588 1.176592
v 0.196549 1.351588 -1.176592
v 0.783485 1.285011 1.176592
v 0.783485 1.285011 -1.176592
v -0.114883 1.307958 -1.176592
v -0.114883 1.307958 1.176592
v 0.195909 1.353239 0.136610
v 0.415336 1.295666 0.136610
v 0.195909 1.353239 -0.136610
v 0.415336 1.295666 -0.136610
v 0.760583 1.283681 0.136610
v 0.760583 1.283681 -0.136610
v -0.747514 1.290159 0.136610
v -0.747514 1.290159 -0.136610
vt 0.012901 0.686516
vt 0.619901 0.686516
vt 0.619901 0.992830
vt 0.012901 0.992830
vt 0.011401 0.371907
vt 0.619404 0.371907
vt 0.619404 0.678283
vt 0.011401 0.678283
vt 0.132480 0.331494
vt 0.132480 0.058804
vt 0.296917 0.058804
vt 0.296917 0.331494
vt 0.303891 0.036833
vt 0.653076 0.036833
vt 0.653076 0.361591
vt 0.303245 0.361657
vt 0.673774 0.398562
vt 0.673835 0.068600
vt 0.980149 0.068600
vt 0.980149 0.397953
vt 0.959673 0.444379
vt 0.959673 0.961517
vt 0.951799 0.961517
vt 0.951799 0.444379
vt 0.955683 0.979462
vt 0.955683 0.426910
vt 0.947013 0.426909
vt 0.947013 0.979462
vt 0.636486 0.961517
vt 0.636485 0.444379
vt 0.629058 0.961517
vt 0.629058 0.444379
vt 0.639579 0.426910
vt 0.639578 0.979461
vt 0.631387 0.426910
vt 0.631387 0.979461
vt 0.627827 0.436903
vt 0.951392 0.436250
vt 0.951392 0.969646
vt 0.627827 0.968993
vt 0.630991 0.987884
vt 0.946754 0.988174
vt 0.946754 0.418197
vt 0.630991 0.418488
vt 0.058833 0.145016
vt 0.058833 0.090615
vt 0.102332 0.090615
vt 0.102332 0.145016
vt 0.058833 0.009275
vt 0.102332 0.009275
vt 0.102332 0.362098
vt 0.058833 0.362098
vn 0.000000 0.000000 1.000000
vn 0.000000 0.000000 1.000000
vn 0.000000 0.000000 1.000000
vn 0.000000 0.000000 1.000000
vn 0.000000 0.000000 -1.000000
vn 0.000000 0.000000 -1.000000
vn 0.000000 0.000000 -1.000000
vn 0.000000 0.000000 -1.000000
vn 0.000000 -1.000000 0.000000
vn 0.000000 -1.000000 0.000000
vn 0.000000 -1.000000 0.000000
vn 0.000000 -1.000000 0.000000
vn 1.000000 0.000000 0.000000
vn 1.000000 0.000000 0.000000
vn 0.999822 0.018853 0.000000
vn 0.999822 0.018853 0.000000
vn -0.999997 -0.002385 0.000000
vn -0.999997 -0.002385 0.000000
vn -0.999863 0.016555 0.000000
vn -0.999863 0.016555 0.000000
vn -0.089920 0.995949 0.000000
vn -0.089920 0.995949 0.000000
vn -0.070706 0.997497 0.000000
vn -0.070706 0.997497 0.000000
vn 0.047856 0.998854 0.000000
vn 0.047856 0.998854 0.000000
vn 0.025535 0.999674 0.000000
vn 0.025535 0.999674 0.000000
vn -0.000000 0.000000 1.000000
vn -0.000000 0.000000 1.000000
vn -0.000000 0.000000 1.000000
vn -0.000000 0.000000 1.000000
vn 1.000000 0.000000 0.000000
vn 1.000000 0.000000 0.000000
vn 1.000000 0.000000 0.000000
vn 1.000000 0.000000 0.000000
vn -0.000000 0.000000 -1.000000
vn -0.000000 0.000000 -1.000000
vn -0.000000 0.000000 -1.000000
vn -0.000000 0.000000 -1.000000
vn -0.000000 0.000000 -1.000000
vn -0.000000 0.000000 -1.000000
vn -0.000000 0.000000 -1.000000
vn -0.000000 0.000000 -1.000000
vn -1.000000 0.000000 0.000000
vn -1.000000 0.000000 0.000000
vn -1.000000 0.000000 0.000000
vn -1.000000 0.000000 0.000000
vn 0.000000 0.000000 1.000000
vn 0.000000 0.000000 1.000000
vn 0.000000 0.000000 1.000000
vn 0.000000 0.000000 1.000000
vn 0.253792 0.967259 0.000000
vn 0.253792 0.967259 0.000000
vn 0.253792 0.967259 0.000000
vn 0.253792 0.967259 0.000000
vn 0.034693 0.999398 0.000000
vn 0.034693 0.999398 0.000000
vn 0.034693 0.999398 0.000000
vn 0.034693 0.999398 0.000000
vn -0.066714 0.997772 0.000000
vn -0.066714 0.997772 0.000000
vn -0.066714 0.997772 0.000000
vn -0.066714 0.997772 0.000000
s off
g pCube2
usemtl initialShadingGroup
f 1/13/1 2/14/2 4/15/3 3/16/4
f 5/17/5 6/18/6 8/19/7 7/20/8
f 7/9/9 8/10/10 2/11/11 1/12/12
s 1
f 2/1/13 8/2/14 6/3/15 4/4/16
s 2
f 7/5/17 1/6/18 3/7/19 5/8/20
f 14/29/21 13/30/22 15/24/23 16/23/24
s 1
f 17/33/25 18/34/26 19/28/27 20/27/28
s 2
f 5/31/20 3/32/19 13/30/22 14/29/21
s off
f 3/37/29 9/38/30 15/24/31 13/30/32
f 9/21/33 10/22/34 16/23/35 15/24/36
f 10/39/37 5/40/38 14/29/39 16/23/40
s 1
f 4/35/16 6/36/15 18/34/26 17/33/25
s off
f 6/41/41 12/42/42 19/28/43 18/34/44
f 12/25/45 11/26/46 20/27/47 19/28/48
f 11/43/49 4/44/50 17/33/51 20/27/52
f 21/45/53 22/46/54 24/47/55 23/48/56
f 24/47/57 22/46/58 25/49/59 26/50/60
f 21/45/61 23/48/62 28/51/63 27/52/64
