# File produced by Open Asset Import Library (http://www.assimp.sf.net)
# (assimp v3.1.193236683)

mtllib tent.mtl

# 59 vertex positions
v  0 -0.00302219 -0.929361
v  -0.527778 -0.00302219 -0.929361
v  -0.527778 0.69361 -0.41519
v  -3.1458e-08 0.69361 -0.41519
v  0.527778 -0.00302219 -0.929361
v  0.527778 0.69361 -0.41519
v  0 -0.00302219 0.929361
v  -3.1458e-08 0.69361 0.42616
v  -0.527778 0.69361 0.42616
v  -0.527778 -0.00302219 0.929361
v  0.527778 -0.00302219 0.929361
v  0.527778 0.69361 0.42616
v  -1.01162 0.69361 0.42616
v  -1.01438 1.36891 0.0338681
v  -1.04334 1.36079 0.0247951
v  -1.04051 0.687002 0.416169
v  -1.05556 1.33441 0.0055602
v  -1.05248 0.671049 0.39205
v  1.00198 0.69361 0.42616
v  1.01469 -0.00302219 0.929361
v  1.04359 -0.00302219 0.914598
v  1.03088 0.687002 0.416169
v  1.05556 -0.00302219 0.878955
v  1.04284 0.671049 0.39205
v  -1.05556 -0.00302219 -0.878576
v  -1.05248 0.670866 -0.381191
v  -1.04051 0.686948 -0.405232
v  -1.04359 -0.00302219 -0.914487
v  -1.01162 0.69361 -0.41519
v  -1.01469 -0.00302219 -0.929361
v  1.00198 0.69361 -0.41519
v  0.999835 1.3809 -0.0227408
v  1.02879 1.37278 -0.0136698
v  1.03088 0.686948 -0.405232
v  1.04101 1.3464 0.0055602
v  1.04284 0.670866 -0.381191
v  0.53121 1.30299 0.0344567
v  0.999835 1.3809 0.0338681
v  0.999827 1.39681 0.00556503
v  0.529993 1.31852 0.00556512
v  0.53121 1.303 -0.0233293
v  1.01469 -0.00302219 -0.929361
v  -6.2927e-08 1.2874 0.0344568
v  -0.53121 1.30299 0.0344567
v  -1.01524 1.36999 -0.0221522
v  -0.53121 1.303 -0.0233293
v  -6.2927e-08 1.2874 -0.0233292
v  -1.01469 -0.00302219 0.929361
v  1.05556 -0.00302219 -0.878576
v  -1.05556 -0.00302219 0.878955
v  -1.01482 1.3852 0.00574724
v  -0.529993 1.31852 0.00556512
v  -1.04359 -0.00302219 0.914598
v  1.02879 1.37277 0.0247951
v  -1.04356 1.36141 -0.0134104
v  1.04359 -0.00302219 -0.914487
v  -6.2923e-08 1.30263 0.00556521
v  -1.03811 1.37765 0.00567258
v  1.02339 1.38934 0.00556414

# 80 UV coordinates
vt 0.17751 0.499504 0
vt 0.0886585 0.499504 0
vt 0.0886585 0.251916 0
vt 0.17751 0.251916 0
vt 0.266362 0.499504 0
vt 0.266362 0.251916 0
vt 0.535872 0.00199203 0
vt 0.535872 0.24958 0
vt 0.44702 0.24958 0
vt 0.44702 0.00199203 0
vt 0.624724 0.00199203 0
vt 0.624724 0.24958 0
vt 0.365565 0.24958 0
vt 0.3651 0.489588 0
vt 0.360225 0.486701 0
vt 0.360701 0.247232 0
vt 0.461865 0.748394 0
vt 0.38703 0.987863 0
vt 0.383352 0.978489 0
vt 0.457253 0.742724 0
vt 0.704557 0.24958 0
vt 0.706697 0.00199203 0
vt 0.711561 0.00199203 0
vt 0.709421 0.247232 0
vt 0.658084 0.748394 0
vt 0.562779 0.503154 0
vt 0.569595 0.503154 0
vt 0.662696 0.742724 0
vt 0.214296 0.503154 0
vt 0.309401 0.742659 0
vt 0.304804 0.748375 0
vt 0.207429 0.503154 0
vt 0.0018214 0.499504 0
vt 0.00233934 0.254284 0
vt 0.00720351 0.251916 0
vt 0.00668557 0.499504 0
vt 0.346195 0.251916 0
vt 0.345833 0.00764704 0
vt 0.350708 0.0105348 0
vt 0.351059 0.254284 0
vt 0.815145 0.748374 0
vt 0.740274 0.992123 0
vt 0.736597 0.982748 0
vt 0.810548 0.742659 0
vt 0.625302 0.46616 0
vt 0.704195 0.493848 0
vt 0.704194 0.499504 0
vt 0.625097 0.471679 0
vt 0.266735 0.0298172 0
vt 0.345832 0.00199208 0
vt 0.26694 0.0353347 0
vt 0.348335 0.499504 0
vt 0.535872 0.460616 0
vt 0.446442 0.46616 0
vt 0.00659389 0.0115258 0
vt 0.0880806 0.0353347 0
vt 0.17751 0.0408786 0
vt 0.365047 0.00199203 0
vt 0.905653 0.503154 0
vt 0.550354 0.503154 0
vt 0.0066652 0.00611935 0
vt 0.0882856 0.0298172 0
vt 0.446647 0.471679 0
vt 0.365027 0.495377 0
vt 0.55717 0.503154 0
vt 0.360183 0.00199203 0
vt 0.70907 0.49096 0
vt 0.732919 0.992122 0
vt 0.379725 0.988083 0
vt 0.00182551 0.0145755 0
vt 0.353199 0.499504 0
vt 0.91252 0.503154 0
vt 0.17751 0.0354655 0
vt 0.535872 0.466031 0
vt 0.383374 0.993854 0
vt 0.361105 0.492692 0
vt 0.002743 0.00880443 0
vt 0.708161 0.496846 0
vt 0.736596 0.998008 0
vt 0.349799 0.00465015 0

# 79 vertex normals
vn 0 0.593845 -0.804579
vn 0.00975335 0.56664 -0.823907
vn 1.64629e-10 0.572276 -0.820061
vn 0 0.593846 -0.804579
vn -0.0112604 0.565992 -0.824334
vn 0 0.585551 0.810636
vn -1.6529e-10 0.567529 0.823353
vn 0.00977265 0.561909 0.827141
vn 0 0.585551 0.810636
vn 0 0.585551 0.810636
vn -0.0113003 0.561228 0.827584
vn -0.00822886 0.554934 0.831853
vn 0.0160516 0.543128 0.839496
vn -0.381183 0.470333 0.795919
vn -0.382535 0.512019 0.769093
vn -0.924282 0.202329 0.323677
vn -0.930628 0.209165 0.300302
vn -0.996609 0.0822852 0.0002245
vn -0.999862 0.0112574 0.0122039
vn 0.00565524 0.553546 0.832799
vn 0.020997 0.585674 0.810274
vn 0.38191 0.545756 0.745852
vn 0.382169 0.512709 0.768814
vn 0.924011 0.207327 0.321277
vn 0.9219 0.238002 0.305704
vn 0.999466 0.0292962 0.0144748
vn 0.999634 0.0241941 0.0120836
vn -0.999772 0.0154583 -0.0147641
vn -0.999863 0.0113269 -0.0121015
vn -0.92522 0.202343 -0.320975
vn -0.92341 0.230617 -0.306807
vn -0.382492 0.549786 -0.742587
vn -0.383688 0.516909 -0.765237
vn -0.00822766 0.559611 -0.828714
vn -0.0205833 0.593779 -0.804365
vn 0.00572935 0.55829 -0.829626
vn -0.022689 0.540881 -0.840793
vn 0.380947 0.46672 -0.798155
vn 0.382242 0.517757 -0.765388
vn 0.924033 0.208526 -0.320438
vn 0.930931 0.211759 -0.297534
vn 0.996083 0.0884178 -1.38976e-05
vn 0.999633 0.0242891 -0.0120165
vn -0.0285483 0.545815 0.837419
vn -0.0226754 0.540738 0.840885
vn -0.124291 0.866964 0.482623
vn -0.0858389 0.87547 0.475588
vn -0.0858465 0.875556 -0.475429
vn -0.124305 0.867049 -0.482467
vn -0.0285557 0.545962 -0.837323
vn 0.0209305 0.593964 -0.804219
vn -5.05103e-10 0.562263 0.826959
vn 0.0243921 0.548192 0.835997
vn 0.0166433 0.543398 -0.83931
vn 0.0244349 0.548339 -0.835899
vn 8.83824e-10 0.56241 -0.826859
vn -0.0206484 0.585486 0.810419
vn 0.999455 0.0296188 -0.014606
vn -0.999778 0.015131 0.0146324
vn 0.102302 0.872442 -0.47789
vn 0.0734356 0.877891 -0.473197
vn 0.0730689 0.875134 0.478331
vn 0.100663 0.866714 0.488542
vn -0.923419 0.227458 0.309127
vn -0.382496 0.54214 0.748186
vn 0.380973 0.466579 0.798225
vn 0.93094 0.211703 0.297546
vn -0.932588 0.208025 -0.294968
vn -0.384128 0.46951 -0.794988
vn 0.381895 0.553356 -0.740238
vn 0.921864 0.2411 -0.303377
vn 3.85627e-09 0.88254 -0.470237
vn -3.85625e-09 0.882454 0.470398
vn -0.927321 0.374092 0.0114809
vn -0.327708 0.78874 0.520093
vn -0.333855 0.802085 -0.495177
vn 0.324758 0.797724 0.508102
vn 0.92518 0.379529 2.42302e-05
vn 0.32475 0.797813 -0.507969

# Mesh 'pCube1_pCube1' with 98 faces
g pCube1_pCube1
usemtl lambert1
f  1/1/1 2/2/1 3/3/2
f  3/3/2 4/4/3 1/1/1
f  5/5/4 1/1/1 4/4/3
f  4/4/3 6/6/5 5/5/4
f  7/7/6 8/8/7 9/9/8
f  9/9/8 10/10/9 7/7/6
f  11/11/10 12/12/11 8/8/7
f  8/8/7 7/7/6 11/11/10
f  13/13/12 14/14/13 15/15/14
f  15/15/14 16/16/15 13/13/12
f  16/17/16 15/18/17 17/19/18
f  17/19/18 18/20/19 16/17/16
f  19/21/20 20/22/21 21/23/22
f  21/23/22 22/24/23 19/21/20
f  22/25/24 21/26/25 23/27/26
f  23/27/26 24/28/27 22/25/24
f  25/29/28 26/30/29 27/31/30
f  27/31/30 28/32/31 25/29/28
f  28/33/32 27/34/33 29/35/34
f  29/35/34 30/36/35 28/33/32
f  31/37/36 32/38/37 33/39/38
f  33/39/38 34/40/39 31/37/36
f  34/41/40 33/42/41 35/43/42
f  35/43/42 36/44/43 34/41/40
f  37/45/44 38/46/45 39/47/46
f  39/47/46 40/48/47 37/45/44
f  40/49/48 39/50/49 32/38/37
f  32/38/37 41/51/50 40/49/48
f  38/46/45 37/45/44 12/12/11
f  12/12/11 19/21/20 38/46/45
f  42/52/51 5/5/4 6/6/5
f  6/6/5 31/37/36 42/52/51
f  43/53/52 44/54/53 9/9/8
f  9/9/8 8/8/7 43/53/52
f  37/45/44 43/53/52 8/8/7
f  8/8/7 12/12/11 37/45/44
f  30/36/35 29/35/34 3/3/2
f  3/3/2 2/2/1 30/36/35
f  14/14/13 13/13/12 9/9/8
f  9/9/8 44/54/53 14/14/13
f  29/35/34 45/55/54 46/56/55
f  46/56/55 3/3/2 29/35/34
f  47/57/56 4/4/3 3/3/2
f  3/3/2 46/56/55 47/57/56
f  41/51/50 6/6/5 4/4/3
f  4/4/3 47/57/56 41/51/50
f  32/38/37 31/37/36 6/6/5
f  6/6/5 41/51/50 32/38/37
f  9/9/8 13/13/12 48/58/57
f  48/58/57 10/10/9 9/9/8
f  20/22/21 19/21/20 12/12/11
f  12/12/11 11/11/10 20/22/21
f  36/44/43 24/28/27 23/27/26
f  23/27/26 49/59/58 36/44/43
f  18/20/19 17/19/18 26/30/29
f  50/60/59 18/20/19 26/30/29
f  26/30/29 25/29/28 50/60/59
f  24/28/27 36/44/43 35/43/42
f  46/56/55 45/55/54 51/61/60
f  51/61/60 52/62/61 46/56/55
f  52/63/62 51/64/63 14/14/13
f  14/14/13 44/54/53 52/63/62
f  18/20/19 50/60/59 53/65/64
f  53/65/64 16/17/16 18/20/19
f  16/16/15 53/66/65 48/58/57
f  48/58/57 13/13/12 16/16/15
f  38/46/45 19/21/20 22/24/23
f  22/24/23 54/67/66 38/46/45
f  54/68/67 22/25/24 24/28/27
f  24/28/27 35/43/42 54/68/67
f  26/30/29 17/19/18 55/69/68
f  55/69/68 27/31/30 26/30/29
f  27/34/33 55/70/69 45/55/54
f  45/55/54 29/35/34 27/34/33
f  42/52/51 31/37/36 34/40/39
f  34/40/39 56/71/70 42/52/51
f  56/72/71 34/41/40 36/44/43
f  36/44/43 49/59/58 56/72/71
f  47/57/56 46/56/55 52/62/61
f  52/62/61 57/73/72 47/57/56
f  57/74/73 52/63/62 44/54/53
f  44/54/53 43/53/52 57/74/73
f  41/51/50 47/57/56 57/73/72
f  57/73/72 40/49/48 41/51/50
f  40/48/47 57/74/73 43/53/52
f  43/53/52 37/45/44 40/48/47
f  58/75/74 55/69/68 17/19/18
f  17/19/18 15/18/17 58/75/74
f  58/76/75 15/15/14 14/14/13
f  14/14/13 51/64/63 58/76/75
f  58/77/76 51/61/60 45/55/54
f  45/55/54 55/70/69 58/77/76
f  59/78/77 39/47/46 38/46/45
f  38/46/45 54/67/66 59/78/77
f  59/79/78 54/68/67 35/43/42
f  35/43/42 33/42/41 59/79/78
f  59/80/79 33/39/38 32/38/37
f  32/38/37 39/50/49 59/80/79

